<mxfile host="app.diagrams.net" agent="Mozilla/5.0 (Macintosh; Intel Mac OS X 10_15_7) AppleWebKit/605.1.15 (KHTML, like Gecko) Version/18.6 Safari/605.1.15" version="28.1.0">
  <diagram name="PÃ¡gina-1" id="pzPZ7BqnamjsjjUGhO2U">
    <mxGraphModel dx="1752" dy="1789" grid="1" gridSize="10" guides="1" tooltips="1" connect="1" arrows="1" fold="1" page="1" pageScale="1" pageWidth="827" pageHeight="1169" math="0" shadow="0">
      <root>
        <mxCell id="0" />
        <mxCell id="1" parent="0" />
        <mxCell id="T5ctjXTZVNIYDT3mK7sw-3" style="edgeStyle=orthogonalEdgeStyle;rounded=0;orthogonalLoop=1;jettySize=auto;html=1;exitX=0.5;exitY=0;exitDx=0;exitDy=0;" edge="1" parent="1" source="T5ctjXTZVNIYDT3mK7sw-1">
          <mxGeometry relative="1" as="geometry">
            <mxPoint x="430" y="260" as="targetPoint" />
          </mxGeometry>
        </mxCell>
        <mxCell id="T5ctjXTZVNIYDT3mK7sw-68" style="edgeStyle=orthogonalEdgeStyle;rounded=0;orthogonalLoop=1;jettySize=auto;html=1;exitX=0.5;exitY=1;exitDx=0;exitDy=0;entryX=0.5;entryY=0;entryDx=0;entryDy=0;" edge="1" parent="1" source="T5ctjXTZVNIYDT3mK7sw-1" target="T5ctjXTZVNIYDT3mK7sw-52">
          <mxGeometry relative="1" as="geometry" />
        </mxCell>
        <mxCell id="T5ctjXTZVNIYDT3mK7sw-69" style="edgeStyle=orthogonalEdgeStyle;rounded=0;orthogonalLoop=1;jettySize=auto;html=1;exitX=0.25;exitY=1;exitDx=0;exitDy=0;entryX=0.5;entryY=0;entryDx=0;entryDy=0;" edge="1" parent="1" source="T5ctjXTZVNIYDT3mK7sw-1" target="T5ctjXTZVNIYDT3mK7sw-51">
          <mxGeometry relative="1" as="geometry" />
        </mxCell>
        <mxCell id="T5ctjXTZVNIYDT3mK7sw-70" style="edgeStyle=orthogonalEdgeStyle;rounded=0;orthogonalLoop=1;jettySize=auto;html=1;exitX=0.75;exitY=1;exitDx=0;exitDy=0;entryX=0.5;entryY=0;entryDx=0;entryDy=0;" edge="1" parent="1" source="T5ctjXTZVNIYDT3mK7sw-1">
          <mxGeometry relative="1" as="geometry">
            <mxPoint x="537.5000000000002" y="460" as="targetPoint" />
          </mxGeometry>
        </mxCell>
        <mxCell id="T5ctjXTZVNIYDT3mK7sw-85" style="edgeStyle=orthogonalEdgeStyle;rounded=0;orthogonalLoop=1;jettySize=auto;html=1;exitX=0;exitY=0.5;exitDx=0;exitDy=0;entryX=1;entryY=0.5;entryDx=0;entryDy=0;" edge="1" parent="1" source="T5ctjXTZVNIYDT3mK7sw-1" target="T5ctjXTZVNIYDT3mK7sw-75">
          <mxGeometry relative="1" as="geometry" />
        </mxCell>
        <mxCell id="T5ctjXTZVNIYDT3mK7sw-1" value="CLIENT" style="rounded=0;whiteSpace=wrap;html=1;" vertex="1" parent="1">
          <mxGeometry x="370" y="360" width="120" height="60" as="geometry" />
        </mxCell>
        <mxCell id="T5ctjXTZVNIYDT3mK7sw-14" style="edgeStyle=orthogonalEdgeStyle;rounded=0;orthogonalLoop=1;jettySize=auto;html=1;exitX=0.5;exitY=0;exitDx=0;exitDy=0;entryX=0.5;entryY=1;entryDx=0;entryDy=0;" edge="1" parent="1" source="T5ctjXTZVNIYDT3mK7sw-4" target="T5ctjXTZVNIYDT3mK7sw-12">
          <mxGeometry relative="1" as="geometry" />
        </mxCell>
        <mxCell id="T5ctjXTZVNIYDT3mK7sw-21" style="edgeStyle=orthogonalEdgeStyle;rounded=0;orthogonalLoop=1;jettySize=auto;html=1;exitX=1;exitY=1;exitDx=0;exitDy=0;" edge="1" parent="1" source="T5ctjXTZVNIYDT3mK7sw-4">
          <mxGeometry relative="1" as="geometry">
            <mxPoint x="540" y="260" as="targetPoint" />
          </mxGeometry>
        </mxCell>
        <mxCell id="T5ctjXTZVNIYDT3mK7sw-4" value="Register&lt;div&gt;Rapair&lt;/div&gt;" style="rhombus;whiteSpace=wrap;html=1;" vertex="1" parent="1">
          <mxGeometry x="390" y="180" width="80" height="80" as="geometry" />
        </mxCell>
        <mxCell id="T5ctjXTZVNIYDT3mK7sw-99" style="edgeStyle=orthogonalEdgeStyle;rounded=0;orthogonalLoop=1;jettySize=auto;html=1;exitX=0;exitY=0.5;exitDx=0;exitDy=0;entryX=1;entryY=0.5;entryDx=0;entryDy=0;" edge="1" parent="1" source="T5ctjXTZVNIYDT3mK7sw-12" target="T5ctjXTZVNIYDT3mK7sw-97">
          <mxGeometry relative="1" as="geometry" />
        </mxCell>
        <mxCell id="T5ctjXTZVNIYDT3mK7sw-100" style="edgeStyle=orthogonalEdgeStyle;rounded=0;orthogonalLoop=1;jettySize=auto;html=1;exitX=0.25;exitY=0;exitDx=0;exitDy=0;entryX=1;entryY=0.5;entryDx=0;entryDy=0;" edge="1" parent="1" source="T5ctjXTZVNIYDT3mK7sw-12" target="T5ctjXTZVNIYDT3mK7sw-98">
          <mxGeometry relative="1" as="geometry" />
        </mxCell>
        <mxCell id="T5ctjXTZVNIYDT3mK7sw-101" style="edgeStyle=orthogonalEdgeStyle;rounded=0;orthogonalLoop=1;jettySize=auto;html=1;exitX=0.25;exitY=1;exitDx=0;exitDy=0;entryX=1;entryY=0.5;entryDx=0;entryDy=0;" edge="1" parent="1" source="T5ctjXTZVNIYDT3mK7sw-12" target="T5ctjXTZVNIYDT3mK7sw-96">
          <mxGeometry relative="1" as="geometry" />
        </mxCell>
        <mxCell id="T5ctjXTZVNIYDT3mK7sw-103" style="edgeStyle=orthogonalEdgeStyle;rounded=0;orthogonalLoop=1;jettySize=auto;html=1;exitX=0.5;exitY=0;exitDx=0;exitDy=0;entryX=0;entryY=1;entryDx=0;entryDy=0;" edge="1" parent="1" source="T5ctjXTZVNIYDT3mK7sw-12" target="T5ctjXTZVNIYDT3mK7sw-102">
          <mxGeometry relative="1" as="geometry" />
        </mxCell>
        <mxCell id="T5ctjXTZVNIYDT3mK7sw-12" value="VEHICLE" style="rounded=0;whiteSpace=wrap;html=1;" vertex="1" parent="1">
          <mxGeometry x="370.20000000000005" y="20" width="120" height="60" as="geometry" />
        </mxCell>
        <mxCell id="T5ctjXTZVNIYDT3mK7sw-30" style="edgeStyle=orthogonalEdgeStyle;rounded=0;orthogonalLoop=1;jettySize=auto;html=1;exitX=1;exitY=0.5;exitDx=0;exitDy=0;" edge="1" parent="1" source="T5ctjXTZVNIYDT3mK7sw-22">
          <mxGeometry relative="1" as="geometry">
            <mxPoint x="680" y="254.79999999999995" as="targetPoint" />
          </mxGeometry>
        </mxCell>
        <mxCell id="T5ctjXTZVNIYDT3mK7sw-31" style="edgeStyle=orthogonalEdgeStyle;rounded=0;orthogonalLoop=1;jettySize=auto;html=1;exitX=1;exitY=0;exitDx=0;exitDy=0;" edge="1" parent="1" source="T5ctjXTZVNIYDT3mK7sw-22">
          <mxGeometry relative="1" as="geometry">
            <mxPoint x="650" y="210" as="targetPoint" />
          </mxGeometry>
        </mxCell>
        <mxCell id="T5ctjXTZVNIYDT3mK7sw-44" style="edgeStyle=orthogonalEdgeStyle;rounded=0;orthogonalLoop=1;jettySize=auto;html=1;exitX=1;exitY=1;exitDx=0;exitDy=0;entryX=0;entryY=0.5;entryDx=0;entryDy=0;" edge="1" parent="1" source="T5ctjXTZVNIYDT3mK7sw-22" target="T5ctjXTZVNIYDT3mK7sw-42">
          <mxGeometry relative="1" as="geometry" />
        </mxCell>
        <mxCell id="T5ctjXTZVNIYDT3mK7sw-49" style="edgeStyle=orthogonalEdgeStyle;rounded=0;orthogonalLoop=1;jettySize=auto;html=1;exitX=0.5;exitY=1;exitDx=0;exitDy=0;entryX=0;entryY=0;entryDx=0;entryDy=0;" edge="1" parent="1" source="T5ctjXTZVNIYDT3mK7sw-22" target="T5ctjXTZVNIYDT3mK7sw-47">
          <mxGeometry relative="1" as="geometry" />
        </mxCell>
        <mxCell id="T5ctjXTZVNIYDT3mK7sw-22" value="In Date" style="ellipse;whiteSpace=wrap;html=1;" vertex="1" parent="1">
          <mxGeometry x="540" y="230" width="75" height="50" as="geometry" />
        </mxCell>
        <mxCell id="T5ctjXTZVNIYDT3mK7sw-34" value="Day" style="ellipse;whiteSpace=wrap;html=1;" vertex="1" parent="1">
          <mxGeometry x="615" y="160" width="75" height="50" as="geometry" />
        </mxCell>
        <mxCell id="T5ctjXTZVNIYDT3mK7sw-35" value="Mont" style="ellipse;whiteSpace=wrap;html=1;" vertex="1" parent="1">
          <mxGeometry x="680" y="220" width="75" height="50" as="geometry" />
        </mxCell>
        <mxCell id="T5ctjXTZVNIYDT3mK7sw-42" value="Year" style="ellipse;whiteSpace=wrap;html=1;" vertex="1" parent="1">
          <mxGeometry x="710" y="290" width="75" height="50" as="geometry" />
        </mxCell>
        <mxCell id="T5ctjXTZVNIYDT3mK7sw-47" value="Hour" style="ellipse;whiteSpace=wrap;html=1;" vertex="1" parent="1">
          <mxGeometry x="630" y="340" width="75" height="50" as="geometry" />
        </mxCell>
        <mxCell id="T5ctjXTZVNIYDT3mK7sw-51" value="&lt;u&gt;DNI&lt;/u&gt;" style="ellipse;whiteSpace=wrap;html=1;" vertex="1" parent="1">
          <mxGeometry x="290" y="460" width="75" height="50" as="geometry" />
        </mxCell>
        <mxCell id="T5ctjXTZVNIYDT3mK7sw-71" style="edgeStyle=orthogonalEdgeStyle;rounded=0;orthogonalLoop=1;jettySize=auto;html=1;exitX=0;exitY=0.5;exitDx=0;exitDy=0;entryX=0.5;entryY=0;entryDx=0;entryDy=0;" edge="1" parent="1" source="T5ctjXTZVNIYDT3mK7sw-52" target="T5ctjXTZVNIYDT3mK7sw-56">
          <mxGeometry relative="1" as="geometry" />
        </mxCell>
        <mxCell id="T5ctjXTZVNIYDT3mK7sw-72" style="edgeStyle=orthogonalEdgeStyle;rounded=0;orthogonalLoop=1;jettySize=auto;html=1;exitX=0;exitY=1;exitDx=0;exitDy=0;entryX=0.5;entryY=0;entryDx=0;entryDy=0;" edge="1" parent="1" source="T5ctjXTZVNIYDT3mK7sw-52" target="T5ctjXTZVNIYDT3mK7sw-58">
          <mxGeometry relative="1" as="geometry" />
        </mxCell>
        <mxCell id="T5ctjXTZVNIYDT3mK7sw-73" style="edgeStyle=orthogonalEdgeStyle;rounded=0;orthogonalLoop=1;jettySize=auto;html=1;exitX=1;exitY=1;exitDx=0;exitDy=0;entryX=0.5;entryY=0;entryDx=0;entryDy=0;" edge="1" parent="1" source="T5ctjXTZVNIYDT3mK7sw-52" target="T5ctjXTZVNIYDT3mK7sw-62">
          <mxGeometry relative="1" as="geometry" />
        </mxCell>
        <mxCell id="T5ctjXTZVNIYDT3mK7sw-74" style="edgeStyle=orthogonalEdgeStyle;rounded=0;orthogonalLoop=1;jettySize=auto;html=1;exitX=1;exitY=0.5;exitDx=0;exitDy=0;entryX=0.5;entryY=0;entryDx=0;entryDy=0;" edge="1" parent="1" source="T5ctjXTZVNIYDT3mK7sw-52" target="T5ctjXTZVNIYDT3mK7sw-67">
          <mxGeometry relative="1" as="geometry" />
        </mxCell>
        <mxCell id="T5ctjXTZVNIYDT3mK7sw-52" value="Name" style="ellipse;whiteSpace=wrap;html=1;" vertex="1" parent="1">
          <mxGeometry x="392.7" y="520" width="75" height="50" as="geometry" />
        </mxCell>
        <mxCell id="T5ctjXTZVNIYDT3mK7sw-56" value="1st Name" style="ellipse;whiteSpace=wrap;html=1;" vertex="1" parent="1">
          <mxGeometry x="264" y="570" width="75" height="50" as="geometry" />
        </mxCell>
        <mxCell id="T5ctjXTZVNIYDT3mK7sw-58" value="2st Name" style="ellipse;whiteSpace=wrap;html=1;" vertex="1" parent="1">
          <mxGeometry x="339" y="610" width="75" height="50" as="geometry" />
        </mxCell>
        <mxCell id="T5ctjXTZVNIYDT3mK7sw-62" value="1st Surname" style="ellipse;whiteSpace=wrap;html=1;" vertex="1" parent="1">
          <mxGeometry x="440" y="610" width="75" height="50" as="geometry" />
        </mxCell>
        <mxCell id="T5ctjXTZVNIYDT3mK7sw-67" value="2st Surname" style="ellipse;whiteSpace=wrap;html=1;" vertex="1" parent="1">
          <mxGeometry x="520" y="570" width="75" height="50" as="geometry" />
        </mxCell>
        <mxCell id="T5ctjXTZVNIYDT3mK7sw-86" style="edgeStyle=orthogonalEdgeStyle;rounded=0;orthogonalLoop=1;jettySize=auto;html=1;exitX=1;exitY=0;exitDx=0;exitDy=0;entryX=0.5;entryY=1;entryDx=0;entryDy=0;" edge="1" parent="1" source="T5ctjXTZVNIYDT3mK7sw-75" target="T5ctjXTZVNIYDT3mK7sw-80">
          <mxGeometry relative="1" as="geometry" />
        </mxCell>
        <mxCell id="T5ctjXTZVNIYDT3mK7sw-87" style="edgeStyle=orthogonalEdgeStyle;rounded=0;orthogonalLoop=1;jettySize=auto;html=1;exitX=0.5;exitY=1;exitDx=0;exitDy=0;entryX=0.5;entryY=0;entryDx=0;entryDy=0;" edge="1" parent="1" source="T5ctjXTZVNIYDT3mK7sw-75" target="T5ctjXTZVNIYDT3mK7sw-77">
          <mxGeometry relative="1" as="geometry" />
        </mxCell>
        <mxCell id="T5ctjXTZVNIYDT3mK7sw-88" style="edgeStyle=orthogonalEdgeStyle;rounded=0;orthogonalLoop=1;jettySize=auto;html=1;exitX=0;exitY=1;exitDx=0;exitDy=0;entryX=0.5;entryY=0;entryDx=0;entryDy=0;" edge="1" parent="1" source="T5ctjXTZVNIYDT3mK7sw-75" target="T5ctjXTZVNIYDT3mK7sw-76">
          <mxGeometry relative="1" as="geometry" />
        </mxCell>
        <mxCell id="T5ctjXTZVNIYDT3mK7sw-89" style="edgeStyle=orthogonalEdgeStyle;rounded=0;orthogonalLoop=1;jettySize=auto;html=1;exitX=0;exitY=0;exitDx=0;exitDy=0;entryX=0.5;entryY=1;entryDx=0;entryDy=0;" edge="1" parent="1" source="T5ctjXTZVNIYDT3mK7sw-75" target="T5ctjXTZVNIYDT3mK7sw-81">
          <mxGeometry relative="1" as="geometry" />
        </mxCell>
        <mxCell id="T5ctjXTZVNIYDT3mK7sw-75" value="Address" style="ellipse;whiteSpace=wrap;html=1;" vertex="1" parent="1">
          <mxGeometry x="210" y="350" width="75" height="50" as="geometry" />
        </mxCell>
        <mxCell id="T5ctjXTZVNIYDT3mK7sw-76" value="City" style="ellipse;whiteSpace=wrap;html=1;" vertex="1" parent="1">
          <mxGeometry x="110" y="420" width="75" height="50" as="geometry" />
        </mxCell>
        <mxCell id="T5ctjXTZVNIYDT3mK7sw-77" value="State" style="ellipse;whiteSpace=wrap;html=1;" vertex="1" parent="1">
          <mxGeometry x="210" y="420" width="75" height="50" as="geometry" />
        </mxCell>
        <mxCell id="T5ctjXTZVNIYDT3mK7sw-80" value="Zip Code" style="ellipse;whiteSpace=wrap;html=1;" vertex="1" parent="1">
          <mxGeometry x="285" y="260" width="75" height="50" as="geometry" />
        </mxCell>
        <mxCell id="T5ctjXTZVNIYDT3mK7sw-90" style="edgeStyle=orthogonalEdgeStyle;rounded=0;orthogonalLoop=1;jettySize=auto;html=1;exitX=1;exitY=0;exitDx=0;exitDy=0;entryX=0.5;entryY=1;entryDx=0;entryDy=0;" edge="1" parent="1" source="T5ctjXTZVNIYDT3mK7sw-81" target="T5ctjXTZVNIYDT3mK7sw-82">
          <mxGeometry relative="1" as="geometry" />
        </mxCell>
        <mxCell id="T5ctjXTZVNIYDT3mK7sw-92" style="edgeStyle=orthogonalEdgeStyle;rounded=0;orthogonalLoop=1;jettySize=auto;html=1;exitX=0;exitY=0.5;exitDx=0;exitDy=0;entryX=1;entryY=0.5;entryDx=0;entryDy=0;" edge="1" parent="1" source="T5ctjXTZVNIYDT3mK7sw-81" target="T5ctjXTZVNIYDT3mK7sw-84">
          <mxGeometry relative="1" as="geometry" />
        </mxCell>
        <mxCell id="T5ctjXTZVNIYDT3mK7sw-93" style="edgeStyle=orthogonalEdgeStyle;rounded=0;orthogonalLoop=1;jettySize=auto;html=1;exitX=0;exitY=0;exitDx=0;exitDy=0;entryX=0.5;entryY=1;entryDx=0;entryDy=0;" edge="1" parent="1" source="T5ctjXTZVNIYDT3mK7sw-81" target="T5ctjXTZVNIYDT3mK7sw-83">
          <mxGeometry relative="1" as="geometry" />
        </mxCell>
        <mxCell id="T5ctjXTZVNIYDT3mK7sw-81" value="Street" style="ellipse;whiteSpace=wrap;html=1;" vertex="1" parent="1">
          <mxGeometry x="110" y="280" width="75" height="50" as="geometry" />
        </mxCell>
        <mxCell id="T5ctjXTZVNIYDT3mK7sw-82" value="St Name" style="ellipse;whiteSpace=wrap;html=1;" vertex="1" parent="1">
          <mxGeometry x="189" y="200" width="75" height="50" as="geometry" />
        </mxCell>
        <mxCell id="T5ctjXTZVNIYDT3mK7sw-83" value="No Street" style="ellipse;whiteSpace=wrap;html=1;" vertex="1" parent="1">
          <mxGeometry x="80" y="190" width="75" height="50" as="geometry" />
        </mxCell>
        <mxCell id="T5ctjXTZVNIYDT3mK7sw-84" value="No Floor" style="ellipse;whiteSpace=wrap;html=1;" vertex="1" parent="1">
          <mxGeometry x="-10" y="260" width="75" height="50" as="geometry" />
        </mxCell>
        <mxCell id="T5ctjXTZVNIYDT3mK7sw-94" value="N" style="text;html=1;align=center;verticalAlign=middle;resizable=0;points=[];autosize=1;strokeColor=none;fillColor=none;" vertex="1" parent="1">
          <mxGeometry x="435" y="160" width="30" height="30" as="geometry" />
        </mxCell>
        <mxCell id="T5ctjXTZVNIYDT3mK7sw-95" value="1" style="text;html=1;align=center;verticalAlign=middle;resizable=0;points=[];autosize=1;strokeColor=none;fillColor=none;" vertex="1" parent="1">
          <mxGeometry x="435" y="250" width="30" height="30" as="geometry" />
        </mxCell>
        <mxCell id="T5ctjXTZVNIYDT3mK7sw-96" value="Model" style="ellipse;whiteSpace=wrap;html=1;" vertex="1" parent="1">
          <mxGeometry x="240" y="80" width="75" height="50" as="geometry" />
        </mxCell>
        <mxCell id="T5ctjXTZVNIYDT3mK7sw-97" value="Color" style="ellipse;whiteSpace=wrap;html=1;" vertex="1" parent="1">
          <mxGeometry x="210" y="10" width="75" height="50" as="geometry" />
        </mxCell>
        <mxCell id="T5ctjXTZVNIYDT3mK7sw-98" value="&lt;u&gt;Plate&lt;/u&gt;" style="ellipse;whiteSpace=wrap;html=1;" vertex="1" parent="1">
          <mxGeometry x="260" y="-50" width="75" height="50" as="geometry" />
        </mxCell>
        <mxCell id="T5ctjXTZVNIYDT3mK7sw-102" value="Done On" style="rhombus;whiteSpace=wrap;html=1;" vertex="1" parent="1">
          <mxGeometry x="537.5" y="-180" width="80" height="80" as="geometry" />
        </mxCell>
        <mxCell id="T5ctjXTZVNIYDT3mK7sw-104" value="1" style="text;html=1;align=center;verticalAlign=middle;resizable=0;points=[];autosize=1;strokeColor=none;fillColor=none;" vertex="1" parent="1">
          <mxGeometry x="525" y="-122" width="30" height="30" as="geometry" />
        </mxCell>
        <mxCell id="T5ctjXTZVNIYDT3mK7sw-105" value="N" style="text;html=1;align=center;verticalAlign=middle;resizable=0;points=[];autosize=1;strokeColor=none;fillColor=none;" vertex="1" parent="1">
          <mxGeometry x="575" y="-202" width="30" height="30" as="geometry" />
        </mxCell>
        <mxCell id="T5ctjXTZVNIYDT3mK7sw-109" style="edgeStyle=orthogonalEdgeStyle;rounded=0;orthogonalLoop=1;jettySize=auto;html=1;exitX=1;exitY=0.5;exitDx=0;exitDy=0;entryX=0;entryY=0.5;entryDx=0;entryDy=0;" edge="1" parent="1" source="T5ctjXTZVNIYDT3mK7sw-106" target="T5ctjXTZVNIYDT3mK7sw-108">
          <mxGeometry relative="1" as="geometry" />
        </mxCell>
        <mxCell id="T5ctjXTZVNIYDT3mK7sw-111" style="edgeStyle=orthogonalEdgeStyle;rounded=0;orthogonalLoop=1;jettySize=auto;html=1;exitX=0;exitY=0.5;exitDx=0;exitDy=0;entryX=1;entryY=0.5;entryDx=0;entryDy=0;" edge="1" parent="1" source="T5ctjXTZVNIYDT3mK7sw-106" target="T5ctjXTZVNIYDT3mK7sw-110">
          <mxGeometry relative="1" as="geometry" />
        </mxCell>
        <mxCell id="T5ctjXTZVNIYDT3mK7sw-141" style="edgeStyle=orthogonalEdgeStyle;rounded=0;orthogonalLoop=1;jettySize=auto;html=1;exitX=0.25;exitY=0;exitDx=0;exitDy=0;entryX=0.5;entryY=1;entryDx=0;entryDy=0;" edge="1" parent="1" source="T5ctjXTZVNIYDT3mK7sw-106" target="T5ctjXTZVNIYDT3mK7sw-140">
          <mxGeometry relative="1" as="geometry" />
        </mxCell>
        <mxCell id="T5ctjXTZVNIYDT3mK7sw-142" style="edgeStyle=orthogonalEdgeStyle;rounded=0;orthogonalLoop=1;jettySize=auto;html=1;exitX=0.5;exitY=0;exitDx=0;exitDy=0;" edge="1" parent="1" source="T5ctjXTZVNIYDT3mK7sw-106">
          <mxGeometry relative="1" as="geometry">
            <mxPoint x="710" y="-530" as="targetPoint" />
          </mxGeometry>
        </mxCell>
        <mxCell id="T5ctjXTZVNIYDT3mK7sw-106" value="REPAIR" style="rounded=0;whiteSpace=wrap;html=1;" vertex="1" parent="1">
          <mxGeometry x="650" y="-340" width="120" height="60" as="geometry" />
        </mxCell>
        <mxCell id="T5ctjXTZVNIYDT3mK7sw-107" style="edgeStyle=orthogonalEdgeStyle;rounded=0;orthogonalLoop=1;jettySize=auto;html=1;exitX=1;exitY=0;exitDx=0;exitDy=0;" edge="1" parent="1" source="T5ctjXTZVNIYDT3mK7sw-102">
          <mxGeometry relative="1" as="geometry">
            <mxPoint x="710" y="-280" as="targetPoint" />
          </mxGeometry>
        </mxCell>
        <mxCell id="T5ctjXTZVNIYDT3mK7sw-117" style="edgeStyle=orthogonalEdgeStyle;rounded=0;orthogonalLoop=1;jettySize=auto;html=1;exitX=1;exitY=0.5;exitDx=0;exitDy=0;entryX=0;entryY=0.5;entryDx=0;entryDy=0;" edge="1" parent="1" source="T5ctjXTZVNIYDT3mK7sw-108" target="T5ctjXTZVNIYDT3mK7sw-116">
          <mxGeometry relative="1" as="geometry" />
        </mxCell>
        <mxCell id="T5ctjXTZVNIYDT3mK7sw-108" value="Generate" style="rhombus;whiteSpace=wrap;html=1;" vertex="1" parent="1">
          <mxGeometry x="950" y="-350" width="80" height="80" as="geometry" />
        </mxCell>
        <mxCell id="T5ctjXTZVNIYDT3mK7sw-158" style="edgeStyle=orthogonalEdgeStyle;rounded=0;orthogonalLoop=1;jettySize=auto;html=1;exitX=0;exitY=0.5;exitDx=0;exitDy=0;" edge="1" parent="1" source="T5ctjXTZVNIYDT3mK7sw-110" target="T5ctjXTZVNIYDT3mK7sw-159">
          <mxGeometry relative="1" as="geometry">
            <mxPoint x="230" y="-310.17647058823536" as="targetPoint" />
          </mxGeometry>
        </mxCell>
        <mxCell id="T5ctjXTZVNIYDT3mK7sw-110" value="Works On" style="rhombus;whiteSpace=wrap;html=1;" vertex="1" parent="1">
          <mxGeometry x="400" y="-350" width="80" height="80" as="geometry" />
        </mxCell>
        <mxCell id="T5ctjXTZVNIYDT3mK7sw-112" value="N" style="text;html=1;align=center;verticalAlign=middle;resizable=0;points=[];autosize=1;strokeColor=none;fillColor=none;" vertex="1" parent="1">
          <mxGeometry x="365" y="-342" width="30" height="30" as="geometry" />
        </mxCell>
        <mxCell id="T5ctjXTZVNIYDT3mK7sw-113" value="1" style="text;html=1;align=center;verticalAlign=middle;resizable=0;points=[];autosize=1;strokeColor=none;fillColor=none;" vertex="1" parent="1">
          <mxGeometry x="480" y="-342" width="30" height="30" as="geometry" />
        </mxCell>
        <mxCell id="T5ctjXTZVNIYDT3mK7sw-114" value="1" style="text;html=1;align=center;verticalAlign=middle;resizable=0;points=[];autosize=1;strokeColor=none;fillColor=none;" vertex="1" parent="1">
          <mxGeometry x="925" y="-342" width="30" height="30" as="geometry" />
        </mxCell>
        <mxCell id="T5ctjXTZVNIYDT3mK7sw-115" value="1" style="text;html=1;align=center;verticalAlign=middle;resizable=0;points=[];autosize=1;strokeColor=none;fillColor=none;rotation=0;" vertex="1" parent="1">
          <mxGeometry x="1030" y="-342" width="30" height="30" as="geometry" />
        </mxCell>
        <mxCell id="T5ctjXTZVNIYDT3mK7sw-124" style="edgeStyle=orthogonalEdgeStyle;rounded=0;orthogonalLoop=1;jettySize=auto;html=1;exitX=0.25;exitY=0;exitDx=0;exitDy=0;entryX=0.5;entryY=1;entryDx=0;entryDy=0;" edge="1" parent="1" source="T5ctjXTZVNIYDT3mK7sw-116" target="T5ctjXTZVNIYDT3mK7sw-119">
          <mxGeometry relative="1" as="geometry" />
        </mxCell>
        <mxCell id="T5ctjXTZVNIYDT3mK7sw-125" style="edgeStyle=orthogonalEdgeStyle;rounded=0;orthogonalLoop=1;jettySize=auto;html=1;exitX=0.5;exitY=0;exitDx=0;exitDy=0;entryX=0.5;entryY=1;entryDx=0;entryDy=0;" edge="1" parent="1" source="T5ctjXTZVNIYDT3mK7sw-116" target="T5ctjXTZVNIYDT3mK7sw-120">
          <mxGeometry relative="1" as="geometry" />
        </mxCell>
        <mxCell id="T5ctjXTZVNIYDT3mK7sw-137" style="edgeStyle=orthogonalEdgeStyle;rounded=0;orthogonalLoop=1;jettySize=auto;html=1;exitX=1;exitY=0.25;exitDx=0;exitDy=0;entryX=0;entryY=0.5;entryDx=0;entryDy=0;" edge="1" parent="1" source="T5ctjXTZVNIYDT3mK7sw-116" target="T5ctjXTZVNIYDT3mK7sw-127">
          <mxGeometry relative="1" as="geometry" />
        </mxCell>
        <mxCell id="T5ctjXTZVNIYDT3mK7sw-138" style="edgeStyle=orthogonalEdgeStyle;rounded=0;orthogonalLoop=1;jettySize=auto;html=1;exitX=1;exitY=0.5;exitDx=0;exitDy=0;entryX=0;entryY=0.5;entryDx=0;entryDy=0;" edge="1" parent="1" source="T5ctjXTZVNIYDT3mK7sw-116" target="T5ctjXTZVNIYDT3mK7sw-129">
          <mxGeometry relative="1" as="geometry" />
        </mxCell>
        <mxCell id="T5ctjXTZVNIYDT3mK7sw-139" style="edgeStyle=orthogonalEdgeStyle;rounded=0;orthogonalLoop=1;jettySize=auto;html=1;exitX=1;exitY=0.75;exitDx=0;exitDy=0;entryX=0.5;entryY=0;entryDx=0;entryDy=0;" edge="1" parent="1" source="T5ctjXTZVNIYDT3mK7sw-116" target="T5ctjXTZVNIYDT3mK7sw-130">
          <mxGeometry relative="1" as="geometry" />
        </mxCell>
        <mxCell id="T5ctjXTZVNIYDT3mK7sw-116" value="BILL" style="rounded=0;whiteSpace=wrap;html=1;" vertex="1" parent="1">
          <mxGeometry x="1190" y="-340" width="120" height="60" as="geometry" />
        </mxCell>
        <mxCell id="T5ctjXTZVNIYDT3mK7sw-119" value="Bill-ID" style="ellipse;whiteSpace=wrap;html=1;" vertex="1" parent="1">
          <mxGeometry x="1110" y="-460" width="75" height="50" as="geometry" />
        </mxCell>
        <mxCell id="T5ctjXTZVNIYDT3mK7sw-120" value="IVA" style="ellipse;whiteSpace=wrap;html=1;" vertex="1" parent="1">
          <mxGeometry x="1230" y="-480" width="75" height="50" as="geometry" />
        </mxCell>
        <mxCell id="T5ctjXTZVNIYDT3mK7sw-127" value="Total IVA" style="ellipse;whiteSpace=wrap;html=1;align=center;dashed=1;" vertex="1" parent="1">
          <mxGeometry x="1390" y="-430" width="80" height="50" as="geometry" />
        </mxCell>
        <mxCell id="T5ctjXTZVNIYDT3mK7sw-129" value="COP&lt;div&gt;Total&lt;/div&gt;" style="ellipse;whiteSpace=wrap;html=1;align=center;dashed=1;" vertex="1" parent="1">
          <mxGeometry x="1420" y="-330" width="80" height="50" as="geometry" />
        </mxCell>
        <mxCell id="T5ctjXTZVNIYDT3mK7sw-130" value="EU&lt;div&gt;Total&lt;/div&gt;" style="ellipse;whiteSpace=wrap;html=1;align=center;dashed=1;" vertex="1" parent="1">
          <mxGeometry x="1360" y="-222" width="80" height="50" as="geometry" />
        </mxCell>
        <mxCell id="T5ctjXTZVNIYDT3mK7sw-140" value="&lt;u&gt;Repair&lt;/u&gt;&lt;div&gt;&lt;u&gt;ID&lt;/u&gt;&lt;/div&gt;" style="ellipse;whiteSpace=wrap;html=1;" vertex="1" parent="1">
          <mxGeometry x="555" y="-420" width="75" height="50" as="geometry" />
        </mxCell>
        <mxCell id="T5ctjXTZVNIYDT3mK7sw-148" style="edgeStyle=orthogonalEdgeStyle;rounded=0;orthogonalLoop=1;jettySize=auto;html=1;exitX=0.5;exitY=0;exitDx=0;exitDy=0;" edge="1" parent="1" source="T5ctjXTZVNIYDT3mK7sw-145" target="T5ctjXTZVNIYDT3mK7sw-149">
          <mxGeometry relative="1" as="geometry">
            <mxPoint x="709.666666666667" y="-780" as="targetPoint" />
          </mxGeometry>
        </mxCell>
        <mxCell id="T5ctjXTZVNIYDT3mK7sw-145" value="Needs" style="rhombus;whiteSpace=wrap;html=1;" vertex="1" parent="1">
          <mxGeometry x="670" y="-610" width="80" height="80" as="geometry" />
        </mxCell>
        <mxCell id="T5ctjXTZVNIYDT3mK7sw-146" value="N" style="text;html=1;align=center;verticalAlign=middle;resizable=0;points=[];autosize=1;strokeColor=none;fillColor=none;" vertex="1" parent="1">
          <mxGeometry x="720" y="-630" width="30" height="30" as="geometry" />
        </mxCell>
        <mxCell id="T5ctjXTZVNIYDT3mK7sw-147" value="N" style="text;html=1;align=center;verticalAlign=middle;resizable=0;points=[];autosize=1;strokeColor=none;fillColor=none;" vertex="1" parent="1">
          <mxGeometry x="720" y="-530" width="30" height="30" as="geometry" />
        </mxCell>
        <mxCell id="T5ctjXTZVNIYDT3mK7sw-154" style="edgeStyle=orthogonalEdgeStyle;rounded=0;orthogonalLoop=1;jettySize=auto;html=1;exitX=0;exitY=0.5;exitDx=0;exitDy=0;entryX=0.5;entryY=1;entryDx=0;entryDy=0;" edge="1" parent="1" source="T5ctjXTZVNIYDT3mK7sw-149" target="T5ctjXTZVNIYDT3mK7sw-150">
          <mxGeometry relative="1" as="geometry" />
        </mxCell>
        <mxCell id="T5ctjXTZVNIYDT3mK7sw-155" style="edgeStyle=orthogonalEdgeStyle;rounded=0;orthogonalLoop=1;jettySize=auto;html=1;exitX=0.25;exitY=0;exitDx=0;exitDy=0;entryX=0.5;entryY=1;entryDx=0;entryDy=0;" edge="1" parent="1" source="T5ctjXTZVNIYDT3mK7sw-149" target="T5ctjXTZVNIYDT3mK7sw-151">
          <mxGeometry relative="1" as="geometry" />
        </mxCell>
        <mxCell id="T5ctjXTZVNIYDT3mK7sw-156" style="edgeStyle=orthogonalEdgeStyle;rounded=0;orthogonalLoop=1;jettySize=auto;html=1;exitX=0.75;exitY=0;exitDx=0;exitDy=0;entryX=0.5;entryY=1;entryDx=0;entryDy=0;" edge="1" parent="1" source="T5ctjXTZVNIYDT3mK7sw-149" target="T5ctjXTZVNIYDT3mK7sw-152">
          <mxGeometry relative="1" as="geometry" />
        </mxCell>
        <mxCell id="T5ctjXTZVNIYDT3mK7sw-157" style="edgeStyle=orthogonalEdgeStyle;rounded=0;orthogonalLoop=1;jettySize=auto;html=1;exitX=1;exitY=0.5;exitDx=0;exitDy=0;entryX=0.5;entryY=1;entryDx=0;entryDy=0;" edge="1" parent="1" source="T5ctjXTZVNIYDT3mK7sw-149" target="T5ctjXTZVNIYDT3mK7sw-153">
          <mxGeometry relative="1" as="geometry" />
        </mxCell>
        <mxCell id="T5ctjXTZVNIYDT3mK7sw-149" value="REPLACEMENT" style="rounded=0;whiteSpace=wrap;html=1;" vertex="1" parent="1">
          <mxGeometry x="649.666666666667" y="-810" width="120" height="60" as="geometry" />
        </mxCell>
        <mxCell id="T5ctjXTZVNIYDT3mK7sw-150" value="&lt;u&gt;&lt;font style=&quot;font-size: 11px;&quot;&gt;Replacement&lt;/font&gt;&lt;/u&gt;&lt;div&gt;&lt;u&gt;&lt;font style=&quot;font-size: 11px;&quot;&gt;ID&lt;/font&gt;&lt;/u&gt;&lt;/div&gt;" style="ellipse;whiteSpace=wrap;html=1;" vertex="1" parent="1">
          <mxGeometry x="537.5" y="-870" width="75" height="50" as="geometry" />
        </mxCell>
        <mxCell id="T5ctjXTZVNIYDT3mK7sw-151" value="Stock" style="ellipse;whiteSpace=wrap;html=1;" vertex="1" parent="1">
          <mxGeometry x="630" y="-930" width="75" height="50" as="geometry" />
        </mxCell>
        <mxCell id="T5ctjXTZVNIYDT3mK7sw-152" value="Name" style="ellipse;whiteSpace=wrap;html=1;" vertex="1" parent="1">
          <mxGeometry x="730" y="-930" width="75" height="50" as="geometry" />
        </mxCell>
        <mxCell id="T5ctjXTZVNIYDT3mK7sw-153" value="Price" style="ellipse;whiteSpace=wrap;html=1;" vertex="1" parent="1">
          <mxGeometry x="827" y="-870" width="75" height="50" as="geometry" />
        </mxCell>
        <mxCell id="T5ctjXTZVNIYDT3mK7sw-175" style="edgeStyle=orthogonalEdgeStyle;rounded=0;orthogonalLoop=1;jettySize=auto;html=1;exitX=0.5;exitY=0;exitDx=0;exitDy=0;entryX=0.5;entryY=1;entryDx=0;entryDy=0;" edge="1" parent="1" source="T5ctjXTZVNIYDT3mK7sw-159" target="T5ctjXTZVNIYDT3mK7sw-161">
          <mxGeometry relative="1" as="geometry" />
        </mxCell>
        <mxCell id="T5ctjXTZVNIYDT3mK7sw-176" style="edgeStyle=orthogonalEdgeStyle;rounded=0;orthogonalLoop=1;jettySize=auto;html=1;exitX=0.5;exitY=1;exitDx=0;exitDy=0;entryX=0.5;entryY=0;entryDx=0;entryDy=0;" edge="1" parent="1" source="T5ctjXTZVNIYDT3mK7sw-159" target="T5ctjXTZVNIYDT3mK7sw-160">
          <mxGeometry relative="1" as="geometry" />
        </mxCell>
        <mxCell id="T5ctjXTZVNIYDT3mK7sw-177" style="edgeStyle=orthogonalEdgeStyle;rounded=0;orthogonalLoop=1;jettySize=auto;html=1;exitX=0;exitY=0.75;exitDx=0;exitDy=0;entryX=1;entryY=0;entryDx=0;entryDy=0;" edge="1" parent="1" source="T5ctjXTZVNIYDT3mK7sw-159" target="T5ctjXTZVNIYDT3mK7sw-172">
          <mxGeometry relative="1" as="geometry" />
        </mxCell>
        <mxCell id="T5ctjXTZVNIYDT3mK7sw-178" style="edgeStyle=orthogonalEdgeStyle;rounded=0;orthogonalLoop=1;jettySize=auto;html=1;exitX=0;exitY=0.25;exitDx=0;exitDy=0;entryX=1;entryY=0.5;entryDx=0;entryDy=0;" edge="1" parent="1" source="T5ctjXTZVNIYDT3mK7sw-159" target="T5ctjXTZVNIYDT3mK7sw-162">
          <mxGeometry relative="1" as="geometry" />
        </mxCell>
        <mxCell id="T5ctjXTZVNIYDT3mK7sw-179" style="edgeStyle=orthogonalEdgeStyle;rounded=0;orthogonalLoop=1;jettySize=auto;html=1;exitX=0.25;exitY=0;exitDx=0;exitDy=0;entryX=0.5;entryY=1;entryDx=0;entryDy=0;" edge="1" parent="1" source="T5ctjXTZVNIYDT3mK7sw-159" target="T5ctjXTZVNIYDT3mK7sw-163">
          <mxGeometry relative="1" as="geometry" />
        </mxCell>
        <mxCell id="T5ctjXTZVNIYDT3mK7sw-159" value="MECHANIC" style="rounded=0;whiteSpace=wrap;html=1;" vertex="1" parent="1">
          <mxGeometry x="170" y="-340.17647058823536" width="120" height="60" as="geometry" />
        </mxCell>
        <mxCell id="T5ctjXTZVNIYDT3mK7sw-160" value="Disponibility" style="ellipse;whiteSpace=wrap;html=1;" vertex="1" parent="1">
          <mxGeometry x="192.5" y="-250" width="75" height="50" as="geometry" />
        </mxCell>
        <mxCell id="T5ctjXTZVNIYDT3mK7sw-161" value="Salary" style="ellipse;whiteSpace=wrap;html=1;" vertex="1" parent="1">
          <mxGeometry x="192.5" y="-440" width="75" height="50" as="geometry" />
        </mxCell>
        <mxCell id="T5ctjXTZVNIYDT3mK7sw-162" value="&lt;u&gt;DNI&lt;/u&gt;" style="ellipse;whiteSpace=wrap;html=1;" vertex="1" parent="1">
          <mxGeometry x="30" y="-335" width="75" height="50" as="geometry" />
        </mxCell>
        <mxCell id="T5ctjXTZVNIYDT3mK7sw-180" style="edgeStyle=orthogonalEdgeStyle;rounded=0;orthogonalLoop=1;jettySize=auto;html=1;exitX=1;exitY=0;exitDx=0;exitDy=0;entryX=0.5;entryY=1;entryDx=0;entryDy=0;" edge="1" parent="1" source="T5ctjXTZVNIYDT3mK7sw-163" target="T5ctjXTZVNIYDT3mK7sw-164">
          <mxGeometry relative="1" as="geometry" />
        </mxCell>
        <mxCell id="T5ctjXTZVNIYDT3mK7sw-181" style="edgeStyle=orthogonalEdgeStyle;rounded=0;orthogonalLoop=1;jettySize=auto;html=1;exitX=0.5;exitY=0;exitDx=0;exitDy=0;" edge="1" parent="1" source="T5ctjXTZVNIYDT3mK7sw-163" target="T5ctjXTZVNIYDT3mK7sw-165">
          <mxGeometry relative="1" as="geometry" />
        </mxCell>
        <mxCell id="T5ctjXTZVNIYDT3mK7sw-182" style="edgeStyle=orthogonalEdgeStyle;rounded=0;orthogonalLoop=1;jettySize=auto;html=1;exitX=0;exitY=0;exitDx=0;exitDy=0;entryX=1;entryY=0.5;entryDx=0;entryDy=0;" edge="1" parent="1" source="T5ctjXTZVNIYDT3mK7sw-163" target="T5ctjXTZVNIYDT3mK7sw-166">
          <mxGeometry relative="1" as="geometry" />
        </mxCell>
        <mxCell id="T5ctjXTZVNIYDT3mK7sw-183" style="edgeStyle=orthogonalEdgeStyle;rounded=0;orthogonalLoop=1;jettySize=auto;html=1;exitX=0;exitY=0.5;exitDx=0;exitDy=0;entryX=1;entryY=0.5;entryDx=0;entryDy=0;" edge="1" parent="1" source="T5ctjXTZVNIYDT3mK7sw-163" target="T5ctjXTZVNIYDT3mK7sw-169">
          <mxGeometry relative="1" as="geometry" />
        </mxCell>
        <mxCell id="T5ctjXTZVNIYDT3mK7sw-163" value="Name" style="ellipse;whiteSpace=wrap;html=1;" vertex="1" parent="1">
          <mxGeometry x="35" y="-490" width="75" height="50" as="geometry" />
        </mxCell>
        <mxCell id="T5ctjXTZVNIYDT3mK7sw-164" value="1st Name" style="ellipse;whiteSpace=wrap;html=1;" vertex="1" parent="1">
          <mxGeometry x="105" y="-584" width="75" height="50" as="geometry" />
        </mxCell>
        <mxCell id="T5ctjXTZVNIYDT3mK7sw-165" value="2st Name" style="ellipse;whiteSpace=wrap;html=1;" vertex="1" parent="1">
          <mxGeometry x="5" y="-584" width="75" height="50" as="geometry" />
        </mxCell>
        <mxCell id="T5ctjXTZVNIYDT3mK7sw-166" value="1st Surname" style="ellipse;whiteSpace=wrap;html=1;" vertex="1" parent="1">
          <mxGeometry x="-85" y="-540" width="75" height="50" as="geometry" />
        </mxCell>
        <mxCell id="T5ctjXTZVNIYDT3mK7sw-169" value="2st Surname" style="ellipse;whiteSpace=wrap;html=1;" vertex="1" parent="1">
          <mxGeometry x="-85" y="-470" width="75" height="50" as="geometry" />
        </mxCell>
        <mxCell id="T5ctjXTZVNIYDT3mK7sw-172" value="Phone No" style="ellipse;shape=doubleEllipse;margin=3;whiteSpace=wrap;html=1;align=center;" vertex="1" parent="1">
          <mxGeometry x="65" y="-250" width="75" height="50" as="geometry" />
        </mxCell>
        <mxCell id="T5ctjXTZVNIYDT3mK7sw-174" value="Phone No" style="ellipse;shape=doubleEllipse;margin=3;whiteSpace=wrap;html=1;align=center;" vertex="1" parent="1">
          <mxGeometry x="500" y="460" width="80" height="50" as="geometry" />
        </mxCell>
      </root>
    </mxGraphModel>
  </diagram>
</mxfile>
